<svg width="81" height="36" class="e36e9183b718d073_text__2Np1A" fill='#e0e0e0' viewBox="0 0 54 24" xmlns="http://www.w3.org/2000/svg"><path d="M4.28783 16C3.48098 16 2.75481 15.8177 2.10933 15.453C1.46385 15.0884 0.950929 14.5967 0.570557 13.9779C0.190185 13.3481 0 12.6464 0 11.8729C0 11.1105 0.190185 10.4254 0.570557 9.81768C0.950929 9.19889 1.46385 8.70718 2.10933 8.34254C2.75481 7.9779 3.48098 7.79558 4.28783 7.79558C5.08315 7.79558 5.80355 7.9779 6.44903 8.34254C7.10604 8.69613 7.62473 9.18232 8.0051 9.8011C8.38548 10.4199 8.57566 11.1105 8.57566 11.8729C8.57566 12.6464 8.38548 13.3481 8.0051 13.9779C7.62473 14.5967 7.10604 15.0884 6.44903 15.453C5.80355 15.8177 5.08315 16 4.28783 16ZM4.28783 14.558C4.80652 14.558 5.26758 14.442 5.671 14.2099C6.07443 13.9779 6.3914 13.663 6.62193 13.2652C6.85246 12.8564 6.96772 12.3923 6.96772 11.8729C6.96772 11.3646 6.8467 10.9116 6.60464 10.5138C6.37411 10.116 6.05714 9.80663 5.65371 9.58564C5.26181 9.35359 4.80652 9.23757 4.28783 9.23757C3.76914 9.23757 3.30808 9.35359 2.90466 9.58564C2.50123 9.80663 2.18426 10.116 1.95373 10.5138C1.7232 10.9116 1.60794 11.3646 1.60794 11.8729C1.60794 12.3923 1.7232 12.8564 1.95373 13.2652C2.18426 13.663 2.50123 13.9779 2.90466 14.2099C3.30808 14.442 3.76914 14.558 4.28783 14.558Z"></path><path d="M22.2191 16C21.4122 16 20.6861 15.8177 20.0406 15.453C19.3951 15.0884 18.8822 14.5967 18.5018 13.9779C18.1214 13.3481 17.9312 12.6464 17.9312 11.8729C17.9312 11.1105 18.1214 10.4254 18.5018 9.81768C18.8822 9.19889 19.3951 8.70718 20.0406 8.34254C20.6861 7.9779 21.4122 7.79558 22.2191 7.79558C23.0144 7.79558 23.7348 7.9779 24.3803 8.34254C25.0373 8.69613 25.556 9.18232 25.9363 9.8011C26.3167 10.4199 26.5069 11.1105 26.5069 11.8729C26.5069 12.6464 26.3167 13.3481 25.9363 13.9779C25.556 14.5967 25.0373 15.0884 24.3803 15.453C23.7348 15.8177 23.0144 16 22.2191 16ZM22.2191 14.558C22.7378 14.558 23.1988 14.442 23.6022 14.2099C24.0057 13.9779 24.3226 13.663 24.5532 13.2652C24.7837 12.8564 24.899 12.3923 24.899 11.8729C24.899 11.3646 24.7779 10.9116 24.5359 10.5138C24.3054 10.116 23.9884 9.80663 23.585 9.58564C23.1931 9.35359 22.7378 9.23757 22.2191 9.23757C21.7004 9.23757 21.2393 9.35359 20.8359 9.58564C20.4325 9.80663 20.1155 10.116 19.885 10.5138C19.6544 10.9116 19.5392 11.3646 19.5392 11.8729C19.5392 12.3923 19.6544 12.8564 19.885 13.2652C20.1155 13.663 20.4325 13.9779 20.8359 14.2099C21.2393 14.442 21.7004 14.558 22.2191 14.558Z"></path><path d="M37.8709 16C37.0641 16 36.3379 15.8177 35.6924 15.453C35.047 15.0884 34.534 14.5967 34.1537 13.9779C33.7733 13.3481 33.5831 12.6464 33.5831 11.8729C33.5831 11.1105 33.7733 10.4254 34.1537 9.81768C34.534 9.19889 35.047 8.70718 35.6924 8.34254C36.3379 7.9779 37.0641 7.79558 37.8709 7.79558C38.6663 7.79558 39.3867 7.9779 40.0321 8.34254C40.6891 8.69613 41.2078 9.18232 41.5882 9.8011C41.9686 10.4199 42.1588 11.1105 42.1588 11.8729C42.1588 12.6464 41.9686 13.3481 41.5882 13.9779C41.2078 14.5967 40.6891 15.0884 40.0321 15.453C39.3867 15.8177 38.6663 16 37.8709 16ZM37.8709 14.558C38.3896 14.558 38.8507 14.442 39.2541 14.2099C39.6575 13.9779 39.9745 13.663 40.205 13.2652C40.4356 12.8564 40.5508 12.3923 40.5508 11.8729C40.5508 11.3646 40.4298 10.9116 40.1877 10.5138C39.9572 10.116 39.6402 9.80663 39.2368 9.58564C38.8449 9.35359 38.3896 9.23757 37.8709 9.23757C37.3522 9.23757 36.8912 9.35359 36.4878 9.58564C36.0843 9.80663 35.7674 10.116 35.5368 10.5138C35.3063 10.9116 35.191 11.3646 35.191 11.8729C35.191 12.3923 35.3063 12.8564 35.5368 13.2652C35.7674 13.663 36.0843 13.9779 36.4878 14.2099C36.8912 14.442 37.3522 14.558 37.8709 14.558Z"></path><path d="M52.2365 15.8343V7.96133H53.7925V15.8343H52.2365ZM53.0145 6.38674C52.7263 6.38674 52.49 6.29834 52.3056 6.12155C52.1212 5.9337 52.029 5.70166 52.029 5.42541C52.029 5.16022 52.1212 4.93923 52.3056 4.76243C52.49 4.57459 52.7263 4.48066 53.0145 4.48066C53.3026 4.48066 53.5389 4.57459 53.7234 4.76243C53.9078 4.93923 54 5.16022 54 5.42541C54 5.70166 53.9078 5.9337 53.7234 6.12155C53.5389 6.29834 53.3026 6.38674 53.0145 6.38674Z"></path><path fill-rule="evenodd" clip-rule="evenodd" d="M11.885 11.9518L15.585 15.8343H17.5906L13.6565 11.7461L17.435 7.96133H15.5504L11.885 11.6668V4H10.3289V15.8343H11.885V11.9518ZM13.6565 11.7461L13.2682 11.3425L13.199 12.2044L13.6565 11.7461Z"></path><path d="M13.2682 11.3425L13.199 12.2044L13.6565 11.7461L13.2682 11.3425Z"></path><path fill-rule="evenodd" clip-rule="evenodd" d="M45.4681 11.9518L49.1681 15.8343H51.1737L47.2396 11.7461L51.0181 7.96133H49.1335L45.4681 11.6668V4H43.912V15.8343H45.4681V11.9518ZM47.2396 11.7461L46.8513 11.3425L46.7821 12.2044L47.2396 11.7461Z"></path><path d="M46.8513 11.3425L46.7821 12.2044L47.2396 11.7461L46.8513 11.3425Z"></path><path d="M31.09 16C30.4252 16 29.8961 15.8141 29.5028 15.4423C29.115 15.0653 28.9211 14.4651 28.9211 13.6419V8.9587H27.5V7.79558H28.9211V5.16542H30.5582V7.79558H32.5111V8.9587H30.5582V13.6419C30.5582 14.0561 30.6441 14.3615 30.8158 14.558C30.9876 14.7546 31.2175 14.8528 31.5056 14.8528C31.6995 14.8528 31.9155 14.8369 32.1538 14.805C32.392 14.7678 32.5776 14.736 32.7106 14.7094L32.9349 15.7371C32.6967 15.8061 32.4031 15.8672 32.054 15.9203C31.7105 15.9734 31.3892 16 31.09 16Z"></path></svg>